Motion_pl13
version=1
nRows=12
nColumns=43
inDegrees=yes
endheader
time	pelvis_tilt	pelvis_list	pelvis_rotation	pelvis_tx	pelvis_ty	pelvis_tz	hip_flexion_r	hip_adduction_r	hip_rotation_r	knee_angle_r	ankle_angle_r	subtalar_angle_r	mtp_angle_r	hip_flexion_l	hip_adduction_l	hip_rotation_l	knee_angle_l	ankle_angle_l	subtalar_angle_l	mtp_angle_l	lumbar_extension	lumbar_bending	lumbar_rotation	neck_flexion	neck_lateral_bending	neck_rotation	arm_flex_r	arm_add_r	arm_rot_r	elbow_flex_r	pro_sup_r	wrist_flex_r	wrist_dev_r	hand_finger_flex_r	arm_flex_l	arm_add_l	arm_rot_l	elbow_flex_l	pro_sup_l	wrist_flex_l	wrist_dev_l	hand_finger_flex_l
      0.00250000	     -0.90016524	      8.09224814	     89.28905170	      0.05348636	      1.74946610	      1.99961945	     88.11935535	     -6.58782112	      4.98894489	   -150.23984987	     23.13928642	      7.50614646	     25.43338584	     87.61798017	    -10.81566628	      9.80104136	   -149.87168641	     20.23901803	     26.64351001	     29.61674769	    -55.65096762	     -2.25482577	      1.59637903	     14.11818325	      0.17585074	     -3.99076995	     13.16948283	    -27.62319251	    -41.81895235	    132.90327643	    139.74162301	    -19.81426984	     -4.24841432	     -2.16786421	     22.36331802	    -25.90277383	    -31.74726206	    131.96109994	    148.88123460	    -19.31959558	     -4.91661575	      8.83573926
      0.00500000	     -0.87968513	      8.07092375	     89.28391378	      0.05355250	      1.74951456	      1.99977389	     88.13285587	     -6.56237913	      4.95690864	   -150.21083589	     23.18394614	      7.54881691	     25.38152678	     87.65679354	    -10.82464948	      9.82313515	   -149.86686778	     20.22003808	     26.57051824	     29.57552678	    -55.67346804	     -2.24970045	      1.62685142	     14.27297745	      0.11822063	     -4.07672747	     13.17874526	    -27.66962486	    -41.49778631	    132.72169743	    139.68090588	    -19.69031931	     -4.32197827	     -2.02732552	     22.45744118	    -25.93390055	    -31.31723668	    131.64864490	    148.79453457	    -19.19831249	     -4.85896692	      8.83321811
      0.00750000	     -0.86857354	      8.05320796	     89.27326732	      0.05352644	      1.74958008	      1.99967257	     88.11543279	     -6.55213308	      4.95558635	   -150.20369513	     23.18860047	      7.55741810	     25.36543532	     87.64717603	    -10.81651777	      9.82038529	   -149.86392547	     20.21696599	     26.55660371	     29.56413315	    -55.69106626	     -2.24209630	      1.64705369	     14.39647031	      0.10955243	     -4.09330121	     13.06904810	    -27.63470648	    -41.20361468	    132.64635734	    139.64942180	    -19.59889661	     -4.37413129	     -1.97104109	     22.34009250	    -25.88467826	    -31.00168976	    131.46111398	    148.76231597	    -19.09929997	     -4.86766959	      8.85054585
      0.01000000	     -0.85520720	      8.02845399	     89.27237795	      0.05357604	      1.74960195	      1.99998643	     88.16108483	     -6.53320095	      4.92248429	   -150.17075485	     23.20639590	      7.59259399	     25.31131364	     87.71003957	    -10.82634782	      9.83335413	   -149.84677172	     20.22129819	     26.51200404	     29.52698531	    -55.69390451	     -2.23886135	      1.67272627	     14.45399608	      0.05638693	     -4.12995391	     13.19823630	    -27.71405209	    -40.82141240	    132.34603591	    139.47934862	    -19.40059276	     -4.46503078	     -1.82339887	     22.55833734	    -25.92819217	    -30.50156528	    131.03829069	    148.57964072	    -18.89600330	     -4.83265202	      8.86890314
      0.01250000	     -0.82869936	      8.08865631	     89.26597016	      0.05359384	      1.74973770	      2.00004017	     88.06802211	     -6.52105956	      4.89414843	   -150.16633060	     23.30543122	      7.65755696	     24.75748409	     87.63806956	    -10.81893104	      9.83228727	   -149.85053558	     20.26712527	     26.38460111	     29.15717668	    -55.74822242	     -2.25017980	      1.87494970	     14.28762644	      0.09195527	     -4.34353466	     13.01810507	    -27.68356582	    -40.93631946	    132.14067769	    138.06424284	    -19.13257967	     -5.18142676	     -0.92696135	     22.75999198	    -25.87951641	    -29.75579137	    130.63425452	    147.16157834	    -18.45513325	     -4.77507725	      8.71351678
      0.01500000	     -0.82752180	      8.05307456	     89.26748865	      0.05353855	      1.74974351	      2.00008348	     88.08708737	     -6.53019889	      4.89278668	   -150.15898864	     23.30626115	      7.65587002	     24.73280480	     87.65913755	    -10.81333746	      9.82987909	   -149.84165644	     20.27185987	     26.39021661	     29.14032521	    -55.74722109	     -2.24135517	      1.86894410	     14.44217115	      0.06811778	     -4.34005176	     12.99638897	    -27.68843684	    -40.59228099	    131.94540750	    138.03214490	    -19.02255487	     -5.21888888	     -0.86791966	     22.76204678	    -25.87476457	    -29.42815540	    130.36026239	    147.16790414	    -18.30696401	     -4.80542241	      8.73443986
      0.01750000	     -0.83262578	      8.03483664	     89.29080361	      0.05357565	      1.74981404	      2.00027496	     88.11844414	     -6.53170718	      4.87584313	   -150.12696487	     23.31133850	      7.65056599	     24.69212403	     87.69800566	    -10.76566462	      9.82516870	   -149.81067893	     20.28453408	     26.39627717	     29.11179074	    -55.75408688	     -2.23681733	      1.85399477	     14.48362818	      0.04640287	     -4.33102379	     13.09505807	    -27.69318635	    -40.21233569	    131.66150374	    137.92701554	    -18.85211141	     -5.27950530	     -0.77381795	     22.82814733	    -25.87123396	    -29.01571634	    129.99391820	    147.12572113	    -18.07695500	     -4.82459142	      8.77171499
      0.02000000	     -0.83356924	      8.07289314	     89.34653113	      0.05347921	      1.74990505	      2.00034603	     88.06021686	     -6.58501580	      4.87352039	   -150.11949643	     23.32452610	      7.60966100	     24.57727309	     87.64722341	    -10.69178214	      9.82252706	   -149.79712286	     20.30942020	     26.39743293	     29.02804837	    -55.74917095	     -2.19903885	      1.82252207	     14.16705836	      0.07201340	     -4.31428107	     13.19149650	    -27.61033425	    -39.84685315	    131.31041220	    137.56813548	    -18.54390702	     -5.48594083	     -0.55334903	     22.87824434	    -25.83151958	    -28.60673660	    129.62760259	    146.91005551	    -17.68541844	     -4.80210853	      8.82785613
      0.02250000	     -0.83265133	      8.04197554	     89.35343334	      0.05344980	      1.74991048	      2.00043413	     88.10251553	     -6.58847732	      4.87140733	   -150.10705255	     23.33042198	      7.60445007	     24.55113095	     87.68631485	    -10.67793813	      9.81956364	   -149.78728343	     20.31626994	     26.39993976	     29.00834177	    -55.76755682	     -2.19126566	      1.81166010	     14.38994349	      0.04585207	     -4.30658858	     13.20798815	    -27.65489957	    -39.52829265	    131.06537981	    137.48450157	    -18.37957182	     -5.56415127	     -0.48059150	     22.88477027	    -25.84003814	    -28.28207661	    129.34159400	    146.86999748	    -17.50886962	     -4.80538613	      8.85664295
      0.02500000	     -0.83704703	      8.01652916	     89.37264980	      0.05343415	      1.74996719	      2.00055841	     88.12496068	     -6.58538173	      4.86266948	   -150.08448238	     23.33853097	      7.59249212	     24.52021596	     87.71293168	    -10.64069945	      9.81670637	   -149.76043638	     20.32423716	     26.40082737	     28.98514444	    -55.77627430	     -2.17873809	      1.80005013	     14.50171406	      0.01973434	     -4.29612892	     13.28562763	    -27.65821366	    -39.19800542	    130.78165326	    137.34721859	    -18.17289812	     -5.66437758	     -0.38943383	     22.91714119	    -25.82269843	    -27.93125187	    129.01306122	    146.79968435	    -17.29620639	     -4.78376007	      8.89200157
      0.02750000	     -0.83232913	      8.06393817	     89.42151311	      0.05336060	      1.75006631	      2.00063699	     88.04598186	     -6.62233693	      4.84850635	   -150.07880120	     23.35972658	      7.52617044	     24.39588269	     87.64566588	    -10.56709818	      9.81642223	   -149.74322862	     20.34806012	     26.39457555	     28.89413741	    -55.77808984	     -2.14062425	      1.76184578	     14.16045423	      0.02351831	     -4.26700449	     13.45138193	    -27.56861576	    -38.86306252	    130.37202012	    136.74411257	    -17.68628566	     -6.06178213	     -0.11811120	     22.95958536	    -25.79332933	    -27.57069559	    128.64489456	    146.45772480	    -16.87102854	     -4.65255872	      8.91902161
      0.03000000	     -0.84039973	      8.02638778	     89.42408763	      0.05336204	      1.75003165	      2.00071482	     88.09684019	     -6.60326675	      4.84744406	   -150.07293587	     23.36569833	      7.52079342	     24.37127693	     87.69218426	    -10.55291631	      9.81760829	   -149.73241049	     20.35539436	     26.39940045	     28.87656763	    -55.78930778	     -2.13910173	      1.75424554	     14.43357570	      0.00245838	     -4.26011479	     13.47503548	    -27.66117497	    -38.55193874	    130.11261732	    136.63928307	    -17.51495863	     -6.14938024	     -0.05110434	     22.97126455	    -25.79535594	    -27.28339638	    128.33366716	    146.41153630	    -16.71954701	     -4.64305078	      8.92675989
